<svg xmlns="http://www.w3.org/2000/svg" version="1.1" xmlns:xlink="http://www.w3.org/1999/xlink" xmlns:svgjs="http://svgjs.dev/svgjs" width="1000" height="750" viewBox="0 0 1000 750"><rect width="1000" height="750" fill="#ffffff"></rect><g transform="matrix(0.6008230452674898,0,0,0.6008230452674898,199.10634239396666,83.23643724696356)"><svg viewBox="0 0 254 247" data-background-color="#ffffff" preserveAspectRatio="xMidYMid meet" height="972" width="1000" xmlns="http://www.w3.org/2000/svg" xmlns:xlink="http://www.w3.org/1999/xlink"><g id="tight-bounds" transform="matrix(1,0,0,1,0.20382421068211443,-0.09999999999999432)"><svg viewBox="0 0 253.59235157863574 247.2" height="247.2" width="253.59235157863574"><g><svg viewBox="0 0 395.52 385.55005066736794" height="247.2" width="253.59235157863574"><g transform="matrix(1,0,0,1,0,263.2008463013991)"><svg viewBox="0 0 395.52 122.3492043659688" height="122.3492043659688" width="395.52"><g id="textblocktransform"><svg viewBox="0 0 395.52 122.3492043659688" height="122.3492043659688" width="395.52" id="textblock"><g><svg viewBox="0 0 395.52 72.70004017677782" height="72.70004017677782" width="395.52"><g transform="matrix(1,0,0,1,0,0)"><svg width="395.52" viewBox="2.8 -35.9 248.88 45.75" height="72.70004017677782" data-palette-color="#31c48d"><path d="M17.45-24.5L17.45-24.5 17.45-20.75Q15.15-22.15 11.15-22.15L11.15-22.15Q9.15-22.15 7.98-21.23 6.8-20.3 6.8-18.85L6.8-18.85Q6.8-17.95 7.15-17.28 7.5-16.6 8.53-15.95 9.55-15.3 10.03-15.08 10.5-14.85 12.1-14.15L12.1-14.15Q15.3-12.85 17.1-11.2 18.9-9.55 18.9-6.75L18.9-6.75Q18.9-3.5 16.63-1.6 14.35 0.3 10.4 0.3L10.4 0.3Q5.8 0.3 2.95-1.25L2.95-1.25 2.95-5.1Q6.3-3.1 10.15-3.1L10.15-3.1Q12.45-3.1 13.65-4 14.85-4.9 14.85-6.45L14.85-6.45Q14.85-8.25 13.53-9.25 12.2-10.25 9.1-11.5L9.1-11.5Q6.25-12.6 4.53-14.25 2.8-15.9 2.8-18.7L2.8-18.7Q2.8-21.85 5.18-23.73 7.55-25.6 11.1-25.6L11.1-25.6Q15.05-25.6 17.45-24.5ZM35.4-3.2L35.4-3.2Q38.6-3.2 40.65-5.73 42.7-8.25 42.7-12.9L42.7-12.9Q42.7-17.05 40.7-19.6 38.7-22.15 35.65-22.15 32.6-22.15 30.37-19.93 28.15-17.7 28.15-12.65L28.15-12.65Q28.15-7.8 30.4-5.5 32.65-3.2 35.4-3.2ZM24.25-25.35L28.15-25.35 28.15-21.5Q30.8-25.75 36-25.75L36-25.75Q41.05-25.75 43.92-22.08 46.8-18.4 46.8-12.9L46.8-12.9Q46.8-7.05 43.77-3.33 40.75 0.4 35.9 0.4L35.9 0.4Q30.9 0.4 28.15-3.85L28.15-3.85 28.15 9.85 24.25 9.85 24.25-25.35ZM62.9 0.45L62.9 0.45Q57.45 0.45 54.27-3.23 51.1-6.9 51.1-12.5L51.1-12.5Q51.1-18.15 54.37-21.93 57.65-25.7 62.9-25.7L62.9-25.7Q68.65-25.7 71.77-22 74.9-18.3 74.9-12.6L74.9-12.6Q74.9-6.95 71.7-3.25 68.5 0.45 62.9 0.45ZM62.9-22.2L62.9-22.2Q59.3-22.2 57.25-19.4 55.2-16.6 55.2-12.55L55.2-12.55Q55.2-8.6 57.3-5.83 59.4-3.05 62.9-3.05L62.9-3.05Q66.7-3.05 68.75-5.78 70.8-8.5 70.8-12.55L70.8-12.55Q70.8-16.75 68.85-19.48 66.9-22.2 62.9-22.2ZM93.14-22.15L86.14-22.15 86.14-7.3Q86.14-3.25 89.94-3.25L89.94-3.25Q91.89-3.25 93.39-4.4L93.39-4.4 93.39-0.65Q91.74 0.25 89.69 0.25L89.69 0.25Q82.19 0.25 82.19-7.4L82.19-7.4 82.19-22.15 78.14-22.15 78.14-25.35 82.19-25.35 82.19-31.65 86.14-31.65 86.14-25.35 93.14-25.35 93.14-22.15ZM103.29 0L99.34 0 99.34-25.35 103.29-25.35 103.29 0ZM99.47-31.48Q98.74-32.2 98.74-33.3 98.74-34.4 99.47-35.15 100.19-35.9 101.29-35.9 102.39-35.9 103.14-35.15 103.89-34.4 103.89-33.3 103.89-32.2 103.14-31.48 102.39-30.75 101.29-30.75 100.19-30.75 99.47-31.48ZM122.09 0L117.24 0 108.39-25.35 112.49-25.35 115.99-14.65 119.69-3.1Q120.14-5.25 123.44-14.65L123.44-14.65 127.04-25.35 131.14-25.35 122.09 0ZM140.19 0L136.24 0 136.24-25.35 140.19-25.35 140.19 0ZM136.36-31.48Q135.64-32.2 135.64-33.3 135.64-34.4 136.36-35.15 137.09-35.9 138.19-35.9 139.29-35.9 140.04-35.15 140.79-34.4 140.79-33.3 140.79-32.2 140.04-31.48 139.29-30.75 138.19-30.75 137.09-30.75 136.36-31.48ZM150.23-14.3L163.83-14.3 163.83-15.3Q163.83-18.45 162.13-20.33 160.43-22.2 157.43-22.2L157.43-22.2Q154.58-22.2 152.58-20.15 150.58-18.1 150.23-14.3L150.23-14.3ZM166.18-5L166.18-5 166.18-1.3Q163.23 0.25 158.98 0.25L158.98 0.25Q153.23 0.25 149.71-3.28 146.18-6.8 146.18-12.6L146.18-12.6Q146.18-18.65 149.33-22.15 152.48-25.65 157.43-25.65L157.43-25.65Q162.18-25.65 164.98-22.6 167.78-19.55 167.78-13.95L167.78-13.95Q167.78-12.35 167.53-11L167.53-11 150.23-11Q150.68-7.25 153.08-5.25 155.48-3.25 159.38-3.25L159.38-3.25Q163.63-3.25 166.18-5ZM184.03 0L179.18 0 171.38-25.35 175.58-25.35 178.03-16.95Q179.33-12.55 180.21-9.28 181.08-6 181.33-4.9L181.33-4.9 181.58-3.85Q182.33-7.05 185.23-17L185.23-17 187.63-25.35 191.83-25.35 194.28-17 198.03-3.8Q198.73-6.75 201.88-17L201.88-17 204.43-25.35 208.48-25.35 200.48 0 195.63 0 193.23-8.3 189.73-20.95Q188.98-17.75 186.33-8.3L186.33-8.3 184.03 0ZM215.93-14.3L229.53-14.3 229.53-15.3Q229.53-18.45 227.83-20.33 226.13-22.2 223.13-22.2L223.13-22.2Q220.28-22.2 218.28-20.15 216.28-18.1 215.93-14.3L215.93-14.3ZM231.88-5L231.88-5 231.88-1.3Q228.93 0.25 224.68 0.25L224.68 0.25Q218.93 0.25 215.4-3.28 211.88-6.8 211.88-12.6L211.88-12.6Q211.88-18.65 215.03-22.15 218.18-25.65 223.13-25.65L223.13-25.65Q227.88-25.65 230.68-22.6 233.48-19.55 233.48-13.95L233.48-13.95Q233.48-12.35 233.23-11L233.23-11 215.93-11Q216.38-7.25 218.78-5.25 221.18-3.25 225.08-3.25L225.08-3.25Q229.33-3.25 231.88-5ZM239.48-25.35L243.38-25.35 243.38-20.9Q245.38-25.6 250.28-25.6L250.28-25.6Q251.18-25.6 251.68-25.5L251.68-25.5 251.68-21.6Q250.63-21.95 249.53-21.95L249.53-21.95Q246.88-21.95 245.13-19.5 243.38-17.05 243.38-13.85L243.38-13.85 243.38 0 239.43 0 239.48-25.35Z" opacity="1" transform="matrix(1,0,0,1,0,0)" fill="#31c48d" class="wordmark-text-0" data-fill-palette-color="primary" id="text-0"></path></svg></g></svg></g><g transform="matrix(1,0,0,1,0,89.86277486155082)"><svg viewBox="0 0 395.52 32.48642950441798" height="32.48642950441798" width="395.52"><g transform="matrix(1,0,0,1,0,0)"><svg width="395.52" viewBox="2.69 -39.11 635.43 52.2" height="32.48642950441798" data-palette-color="#adbfb8"><path d="M2.69-1.17L3.66-5.08 4.1-5.37Q5.03-4.86 6.05-4.46 7.08-4.05 8.08-3.78 9.08-3.52 10.05-3.37 11.01-3.22 11.84-3.22L11.84-3.22Q12.99-3.22 13.94-3.49 14.89-3.76 15.56-4.25 16.24-4.74 16.61-5.42 16.99-6.1 16.99-6.93L16.99-6.93Q16.99-7.98 16.41-8.68 15.82-9.38 14.87-9.88 13.92-10.38 12.7-10.74 11.47-11.11 10.21-11.5 8.94-11.89 7.71-12.38 6.49-12.87 5.54-13.61 4.59-14.36 4-15.42 3.42-16.48 3.42-18.02L3.42-18.02Q3.42-19.73 4.17-21.25 4.93-22.78 6.3-23.91 7.67-25.05 9.58-25.71 11.5-26.37 13.84-26.37L13.84-26.37Q14.4-26.37 15.19-26.32 15.97-26.27 16.85-26.16 17.72-26.05 18.64-25.87 19.56-25.68 20.41-25.42L20.41-25.42 19.43-21.61 18.85-21.26Q18.16-21.63 17.35-21.9 16.53-22.17 15.69-22.33 14.84-22.49 14.04-22.57 13.23-22.66 12.62-22.66L12.62-22.66Q11.5-22.66 10.58-22.41 9.67-22.17 9.01-21.72 8.35-21.26 7.98-20.62 7.62-19.97 7.62-19.14L7.62-19.14Q7.62-18.07 8.2-17.36 8.79-16.65 9.77-16.15 10.74-15.65 11.98-15.28 13.21-14.92 14.5-14.53 15.8-14.14 17.03-13.65 18.26-13.16 19.24-12.4 20.21-11.65 20.8-10.56 21.39-9.47 21.39-7.91L21.39-7.91Q21.39-6.08 20.57-4.54 19.75-3 18.32-1.88 16.89-0.76 14.98-0.13 13.06 0.49 10.86 0.49L10.86 0.49Q8.98 0.49 6.85 0.05 4.71-0.39 2.69-1.17L2.69-1.17ZM28.37 0L28.37-39.11 33.01-39.11 33.01-21.68Q33.88-22.46 34.96-23.29 36.03-24.12 37.28-24.8 38.52-25.49 39.89-25.93 41.26-26.37 42.72-26.37L42.72-26.37Q44.48-26.37 45.91-25.7 47.34-25.02 48.36-23.82 49.39-22.61 49.94-20.91 50.49-19.21 50.49-17.14L50.49-17.14 50.49 0 45.85 0 45.85-16.75Q45.85-18.16 45.44-19.24 45.04-20.31 44.35-21.03 43.65-21.75 42.67-22.11 41.7-22.46 40.57-22.46L40.57-22.46Q38.52-22.46 36.69-21.39 34.86-20.31 33.01-18.55L33.01-18.55 33.01 0 28.37 0ZM73.04-3.86L73.04-3.86Q72.43-3.34 71.56-2.6 70.7-1.86 69.61-1.17 68.53-0.49 67.24 0 65.96 0.49 64.52 0.49L64.52 0.49Q63.23 0.49 61.99 0.04 60.76-0.42 59.81-1.31 58.86-2.2 58.28-3.52 57.71-4.83 57.71-6.54L57.71-6.54Q57.71-7.59 57.97-8.67 58.22-9.74 58.83-10.73 59.44-11.72 60.43-12.59 61.42-13.45 62.87-14.1 64.33-14.75 66.3-15.11 68.28-15.48 70.84-15.48L70.84-15.48 73.04-15.48 73.04-17.72Q73.04-18.85 72.65-19.75 72.26-20.65 71.56-21.3 70.87-21.95 69.9-22.3 68.94-22.66 67.77-22.66L67.77-22.66Q66.89-22.66 65.9-22.46 64.91-22.27 63.92-21.9 62.93-21.53 62.03-21.04 61.13-20.56 60.44-19.97L60.44-19.97 60-20.21 59.03-23.78Q60.44-24.56 61.76-25.06 63.08-25.56 64.29-25.85 65.5-26.15 66.6-26.26 67.7-26.37 68.7-26.37L68.7-26.37Q73.26-26.37 75.47-24.48 77.68-22.58 77.68-18.8L77.68-18.8 77.68-6.05Q77.68-5.74 77.73-5.29 77.78-4.83 77.96-4.42 78.14-4 78.5-3.71 78.85-3.42 79.46-3.42L79.46-3.42Q79.8-3.42 80.37-3.53 80.93-3.64 81.49-3.91L81.49-3.91 81.49-1.32Q80.32-0.51 79.13-0.01 77.95 0.49 76.85 0.49L76.85 0.49Q75.85 0.49 75.2 0.09 74.56-0.32 74.13-0.95 73.7-1.59 73.46-2.36 73.21-3.13 73.04-3.86ZM73.04-6.98L73.04-12.65 71.19-12.65Q68.33-12.65 66.63-12.24 64.94-11.84 64.05-11.17 63.15-10.5 62.87-9.62 62.59-8.74 62.59-7.79L62.59-7.79Q62.59-6.76 62.89-5.96 63.18-5.15 63.7-4.58 64.23-4 64.96-3.71 65.69-3.42 66.55-3.42L66.55-3.42Q67.21-3.42 67.9-3.58 68.6-3.74 69.39-4.14 70.19-4.54 71.08-5.22 71.97-5.91 73.04-6.98L73.04-6.98ZM87.13 0L87.13-25.88 90.74-25.88 91.47-18.12Q91.79-18.73 92.14-19.37 92.5-20.02 92.85-20.63 93.21-21.24 93.55-21.78 93.89-22.31 94.16-22.71L94.16-22.71Q94.69-23.46 95.37-24.13 96.04-24.8 96.82-25.31 97.6-25.81 98.48-26.09 99.36-26.37 100.36-26.37L100.36-26.37Q101.07-26.37 101.7-26.21 102.34-26.05 102.75-25.68L102.75-25.68 102.26-21.34Q101.82-21.46 101.4-21.5 100.97-21.53 100.55-21.53L100.55-21.53Q98.82-21.53 97.54-20.97 96.26-20.41 95.24-19.45 94.23-18.48 93.41-17.19 92.6-15.89 91.76-14.4L91.76-14.4 91.76 0 87.13 0ZM127.92-4.83L127.92-2.2Q126.99-1.54 125.78-1.04 124.57-0.54 123.28-0.2 121.99 0.15 120.68 0.32 119.37 0.49 118.25 0.49L118.25 0.49Q115.76 0.49 113.52-0.34 111.27-1.17 109.58-2.78 107.9-4.39 106.9-6.77 105.9-9.16 105.9-12.26L105.9-12.26Q105.9-15.45 106.96-18.07 108.02-20.68 109.8-22.52 111.59-24.37 113.92-25.37 116.25-26.37 118.81-26.37L118.81-26.37Q120.89-26.37 122.68-25.67 124.48-24.98 125.81-23.58 127.14-22.19 127.9-20.1 128.65-18.02 128.65-15.23L128.65-15.23Q128.65-14.67 128.6-13.89 128.55-13.11 128.41-12.26L128.41-12.26 110.73-12.26Q110.73-10.16 111.48-8.51 112.22-6.86 113.58-5.73 114.93-4.59 116.81-4 118.69-3.42 120.96-3.42L120.96-3.42Q121.52-3.42 122.33-3.47 123.13-3.52 124.06-3.66 124.99-3.81 125.99-4.09 126.99-4.37 127.92-4.83L127.92-4.83ZM110.73-15.14L124.26-15.14Q124.26-16.97 123.74-18.37 123.23-19.78 122.35-20.73 121.47-21.68 120.31-22.17 119.16-22.66 117.84-22.66L117.84-22.66Q116.37-22.66 115.08-22.06 113.78-21.46 112.82-20.43 111.86-19.41 111.29-18.04 110.73-16.67 110.73-15.14L110.73-15.14ZM153.74 0L144.08-25.88 149.3-25.88 154.97-8.4 156.14-3.66 156.63-3.66 157.8-8.4 163.46-25.88 168.25-25.88 153.7 13.09 149.2 13.09 154.62 0 153.74 0ZM183.75 0.49L183.75 0.49Q180.87 0.49 178.62-0.54 176.37-1.56 174.82-3.3 173.27-5.03 172.46-7.34 171.64-9.64 171.64-12.21L171.64-12.21Q171.64-15.14 172.68-17.71 173.71-20.29 175.56-22.22 177.4-24.15 179.94-25.26 182.48-26.37 185.46-26.37L185.46-26.37Q188.36-26.37 190.63-25.33 192.9-24.29 194.45-22.53 196-20.78 196.81-18.47 197.61-16.16 197.61-13.62L197.61-13.62Q197.61-10.67 196.56-8.09 195.51-5.52 193.66-3.61 191.8-1.71 189.26-0.61 186.73 0.49 183.75 0.49ZM184.77-3.22L184.77-3.22Q186.55-3.22 188.01-3.94 189.46-4.66 190.5-5.91 191.54-7.15 192.11-8.85 192.68-10.55 192.68-12.5L192.68-12.5Q192.68-14.43 192.12-16.25 191.56-18.07 190.5-19.49 189.44-20.92 187.9-21.79 186.36-22.66 184.43-22.66L184.43-22.66Q182.65-22.66 181.2-21.94 179.74-21.22 178.71-19.96 177.67-18.7 177.09-16.99 176.52-15.28 176.52-13.33L176.52-13.33Q176.52-11.4 177.08-9.58 177.64-7.76 178.71-6.35 179.77-4.93 181.29-4.08 182.82-3.22 184.77-3.22ZM204.59-8.69L204.59-25.88 209.23-25.88 209.23-9.47Q209.23-8.13 209.61-7.02 209.99-5.91 210.66-5.1 211.33-4.3 212.27-3.86 213.21-3.42 214.36-3.42L214.36-3.42Q215.36-3.42 216.33-3.76 217.29-4.1 218.18-4.65 219.07-5.2 219.87-5.92 220.66-6.64 221.34-7.42L221.34-7.42 221.34-25.88 225.98-25.88 225.98 0 222.37 0 221.59-4.44Q220.68-3.61 219.66-2.75 218.63-1.88 217.47-1.16 216.31-0.44 215.02 0.02 213.73 0.49 212.31 0.49L212.31 0.49Q210.65 0.49 209.25-0.17 207.84-0.83 206.8-2.04 205.77-3.25 205.18-4.94 204.59-6.64 204.59-8.69L204.59-8.69ZM234.57 0L234.57-25.88 238.19-25.88 238.92-18.12Q239.24-18.73 239.59-19.37 239.94-20.02 240.3-20.63 240.65-21.24 240.99-21.78 241.33-22.31 241.6-22.71L241.6-22.71Q242.14-23.46 242.81-24.13 243.48-24.8 244.26-25.31 245.05-25.81 245.92-26.09 246.8-26.37 247.8-26.37L247.8-26.37Q248.51-26.37 249.15-26.21 249.78-26.05 250.2-25.68L250.2-25.68 249.71-21.34Q249.27-21.46 248.84-21.5 248.42-21.53 248-21.53L248-21.53Q246.27-21.53 244.98-20.97 243.7-20.41 242.69-19.45 241.68-18.48 240.86-17.19 240.04-15.89 239.21-14.4L239.21-14.4 239.21 0 234.57 0ZM269.26-6.49L269.26-22.17 264.04-22.17 264.43-24.56Q266.33-24.95 267.48-25.55 268.62-26.15 269.37-27.05 270.11-27.95 270.61-29.24 271.12-30.52 271.75-32.3L271.75-32.3 273.9-32.3 273.9-25.88 283.27-25.88 282.3-22.17 273.9-22.17 273.9-7.71Q273.9-6.54 274.25-5.73 274.61-4.91 275.24-4.39 275.88-3.88 276.78-3.65 277.68-3.42 278.78-3.42L278.78-3.42Q279.9-3.42 281.01-3.63 282.13-3.83 283.13-4.2L283.13-4.2 283.13-1.56Q281.59-0.56 279.89-0.04 278.2 0.49 276.44 0.49L276.44 0.49Q274.8 0.49 273.48 0.02 272.16-0.44 271.22-1.32 270.29-2.2 269.77-3.5 269.26-4.81 269.26-6.49L269.26-6.49ZM304.22-3.86L304.22-3.86Q303.61-3.34 302.74-2.6 301.87-1.86 300.79-1.17 299.7-0.49 298.42 0 297.14 0.49 295.7 0.49L295.7 0.49Q294.4 0.49 293.17 0.04 291.94-0.42 290.99-1.31 290.03-2.2 289.46-3.52 288.89-4.83 288.89-6.54L288.89-6.54Q288.89-7.59 289.14-8.67 289.4-9.74 290.01-10.73 290.62-11.72 291.61-12.59 292.6-13.45 294.05-14.1 295.5-14.75 297.48-15.11 299.46-15.48 302.02-15.48L302.02-15.48 304.22-15.48 304.22-17.72Q304.22-18.85 303.83-19.75 303.44-20.65 302.74-21.3 302.05-21.95 301.08-22.3 300.12-22.66 298.94-22.66L298.94-22.66Q298.07-22.66 297.08-22.46 296.09-22.27 295.1-21.9 294.11-21.53 293.21-21.04 292.3-20.56 291.62-19.97L291.62-19.97 291.18-20.21 290.2-23.78Q291.62-24.56 292.94-25.06 294.26-25.56 295.47-25.85 296.67-26.15 297.77-26.26 298.87-26.37 299.87-26.37L299.87-26.37Q304.44-26.37 306.65-24.48 308.86-22.58 308.86-18.8L308.86-18.8 308.86-6.05Q308.86-5.74 308.91-5.29 308.95-4.83 309.14-4.42 309.32-4 309.67-3.71 310.03-3.42 310.64-3.42L310.64-3.42Q310.98-3.42 311.54-3.53 312.1-3.64 312.67-3.91L312.67-3.91 312.67-1.32Q311.49-0.51 310.31-0.01 309.13 0.49 308.03 0.49L308.03 0.49Q307.03 0.49 306.38 0.09 305.73-0.32 305.3-0.95 304.88-1.59 304.63-2.36 304.39-3.13 304.22-3.86ZM304.22-6.98L304.22-12.65 302.36-12.65Q299.51-12.65 297.81-12.24 296.11-11.84 295.22-11.17 294.33-10.5 294.05-9.62 293.77-8.74 293.77-7.79L293.77-7.79Q293.77-6.76 294.06-5.96 294.35-5.15 294.88-4.58 295.4-4 296.14-3.71 296.87-3.42 297.72-3.42L297.72-3.42Q298.38-3.42 299.08-3.58 299.77-3.74 300.57-4.14 301.36-4.54 302.25-5.22 303.14-5.91 304.22-6.98L304.22-6.98ZM316.94-1.17L317.91-5.08 318.35-5.37Q319.28-4.86 320.3-4.46 321.33-4.05 322.33-3.78 323.33-3.52 324.3-3.37 325.26-3.22 326.09-3.22L326.09-3.22Q327.24-3.22 328.19-3.49 329.14-3.76 329.81-4.25 330.49-4.74 330.86-5.42 331.24-6.1 331.24-6.93L331.24-6.93Q331.24-7.98 330.66-8.68 330.07-9.38 329.12-9.88 328.17-10.38 326.95-10.74 325.72-11.11 324.45-11.5 323.19-11.89 321.96-12.38 320.74-12.87 319.79-13.61 318.84-14.36 318.25-15.42 317.67-16.48 317.67-18.02L317.67-18.02Q317.67-19.73 318.42-21.25 319.18-22.78 320.55-23.91 321.92-25.05 323.83-25.71 325.75-26.37 328.09-26.37L328.09-26.37Q328.65-26.37 329.44-26.32 330.22-26.27 331.1-26.16 331.97-26.05 332.89-25.87 333.81-25.68 334.66-25.42L334.66-25.42 333.68-21.61 333.1-21.26Q332.41-21.63 331.6-21.9 330.78-22.17 329.94-22.33 329.09-22.49 328.29-22.57 327.48-22.66 326.87-22.66L326.87-22.66Q325.75-22.66 324.83-22.41 323.92-22.17 323.26-21.72 322.6-21.26 322.23-20.62 321.87-19.97 321.87-19.14L321.87-19.14Q321.87-18.07 322.45-17.36 323.04-16.65 324.02-16.15 324.99-15.65 326.22-15.28 327.46-14.92 328.75-14.53 330.05-14.14 331.28-13.65 332.51-13.16 333.49-12.4 334.46-11.65 335.05-10.56 335.64-9.47 335.64-7.91L335.64-7.91Q335.64-6.08 334.82-4.54 334-3 332.57-1.88 331.14-0.76 329.23-0.13 327.31 0.49 325.11 0.49L325.11 0.49Q323.23 0.49 321.1 0.05 318.96-0.39 316.94-1.17L316.94-1.17ZM344.89-6.49L344.89-22.17 339.66-22.17 340.05-24.56Q341.96-24.95 343.1-25.55 344.25-26.15 345-27.05 345.74-27.95 346.24-29.24 346.74-30.52 347.38-32.3L347.38-32.3 349.53-32.3 349.53-25.88 358.9-25.88 357.92-22.17 349.53-22.17 349.53-7.71Q349.53-6.54 349.88-5.73 350.23-4.91 350.87-4.39 351.5-3.88 352.41-3.65 353.31-3.42 354.41-3.42L354.41-3.42Q355.53-3.42 356.64-3.63 357.75-3.83 358.75-4.2L358.75-4.2 358.75-1.56Q357.22-0.56 355.52-0.04 353.82 0.49 352.06 0.49L352.06 0.49Q350.43 0.49 349.11 0.02 347.79-0.44 346.85-1.32 345.91-2.2 345.4-3.5 344.89-4.81 344.89-6.49L344.89-6.49ZM385.68-4.83L385.68-2.2Q384.75-1.54 383.54-1.04 382.34-0.54 381.04-0.2 379.75 0.15 378.44 0.32 377.14 0.49 376.01 0.49L376.01 0.49Q373.52 0.49 371.28-0.34 369.03-1.17 367.35-2.78 365.66-4.39 364.66-6.77 363.66-9.16 363.66-12.26L363.66-12.26Q363.66-15.45 364.72-18.07 365.78-20.68 367.57-22.52 369.35-24.37 371.68-25.37 374.01-26.37 376.57-26.37L376.57-26.37Q378.65-26.37 380.44-25.67 382.24-24.98 383.57-23.58 384.9-22.19 385.66-20.1 386.41-18.02 386.41-15.23L386.41-15.23Q386.41-14.67 386.36-13.89 386.32-13.11 386.17-12.26L386.17-12.26 368.49-12.26Q368.49-10.16 369.24-8.51 369.98-6.86 371.34-5.73 372.69-4.59 374.57-4 376.45-3.42 378.72-3.42L378.72-3.42Q379.28-3.42 380.09-3.47 380.9-3.52 381.82-3.66 382.75-3.81 383.75-4.09 384.75-4.37 385.68-4.83L385.68-4.83ZM368.49-15.14L382.02-15.14Q382.02-16.97 381.51-18.37 380.99-19.78 380.11-20.73 379.23-21.68 378.08-22.17 376.92-22.66 375.6-22.66L375.6-22.66Q374.13-22.66 372.84-22.06 371.54-21.46 370.58-20.43 369.62-19.41 369.05-18.04 368.49-16.67 368.49-15.14L368.49-15.14ZM418.63-3.86L418.63-3.86Q418.02-3.34 417.16-2.6 416.29-1.86 415.2-1.17 414.12-0.49 412.84 0 411.55 0.49 410.11 0.49L410.11 0.49Q408.82 0.49 407.59 0.04 406.35-0.42 405.4-1.31 404.45-2.2 403.88-3.52 403.3-4.83 403.3-6.54L403.3-6.54Q403.3-7.59 403.56-8.67 403.81-9.74 404.43-10.73 405.04-11.72 406.02-12.59 407.01-13.45 408.47-14.1 409.92-14.75 411.9-15.11 413.87-15.48 416.44-15.48L416.44-15.48 418.63-15.48 418.63-17.72Q418.63-18.85 418.24-19.75 417.85-20.65 417.16-21.3 416.46-21.95 415.5-22.3 414.53-22.66 413.36-22.66L413.36-22.66Q412.48-22.66 411.49-22.46 410.5-22.27 409.52-21.9 408.53-21.53 407.62-21.04 406.72-20.56 406.04-19.97L406.04-19.97 405.6-20.21 404.62-23.78Q406.04-24.56 407.35-25.06 408.67-25.56 409.88-25.85 411.09-26.15 412.19-26.26 413.29-26.37 414.29-26.37L414.29-26.37Q418.85-26.37 421.06-24.48 423.27-22.58 423.27-18.8L423.27-18.8 423.27-6.05Q423.27-5.74 423.32-5.29 423.37-4.83 423.55-4.42 423.74-4 424.09-3.71 424.44-3.42 425.06-3.42L425.06-3.42Q425.4-3.42 425.96-3.53 426.52-3.64 427.08-3.91L427.08-3.91 427.08-1.32Q425.91-0.51 424.73-0.01 423.54 0.49 422.44 0.49L422.44 0.49Q421.44 0.49 420.79 0.09 420.15-0.32 419.72-0.95 419.29-1.59 419.05-2.36 418.81-3.13 418.63-3.86ZM418.63-6.98L418.63-12.65 416.78-12.65Q413.92-12.65 412.23-12.24 410.53-11.84 409.64-11.17 408.75-10.5 408.47-9.62 408.19-8.74 408.19-7.79L408.19-7.79Q408.19-6.76 408.48-5.96 408.77-5.15 409.3-4.58 409.82-4 410.55-3.71 411.29-3.42 412.14-3.42L412.14-3.42Q412.8-3.42 413.5-3.58 414.19-3.74 414.98-4.14 415.78-4.54 416.67-5.22 417.56-5.91 418.63-6.98L418.63-6.98ZM432.72 0L432.72-25.88 436.33-25.88 437.06-21.39Q437.92-22.19 439.02-23.07 440.12-23.95 441.4-24.68 442.68-25.42 444.12-25.89 445.56-26.37 447.07-26.37L447.07-26.37Q448.86-26.37 450.28-25.68 451.71-25 452.73-23.77 453.74-22.53 454.29-20.84 454.84-19.14 454.84-17.14L454.84-17.14 454.84 0 450.2 0 450.2-16.7Q450.2-18.12 449.8-19.2 449.39-20.29 448.69-21.01 447.98-21.73 447-22.09 446.02-22.46 444.88-22.46L444.88-22.46Q442.85-22.46 441.04-21.39 439.24-20.31 437.36-18.55L437.36-18.55 437.36 0 432.72 0ZM481.45-7.37L481.45-21.44Q479.64-22.22 478.2-22.44 476.76-22.66 475.83-22.66L475.83-22.66Q473.66-22.66 471.96-21.94 470.27-21.22 469.09-19.92 467.92-18.63 467.31-16.82 466.7-15.01 466.7-12.84L466.7-12.84Q466.7-10.94 467.21-9.23 467.73-7.52 468.68-6.23 469.63-4.93 470.97-4.17 472.32-3.42 473.98-3.42L473.98-3.42Q475.95-3.42 477.82-4.48 479.69-5.54 481.45-7.37L481.45-7.37ZM481.45-25.73L481.45-39.11 486.09-39.11 486.09 0 482.47 0 481.74-4.49Q480.91-3.71 479.88-2.84 478.86-1.98 477.61-1.23 476.37-0.49 474.92 0 473.46 0.49 471.83 0.49L471.83 0.49Q469.48 0.49 467.63-0.55 465.77-1.59 464.48-3.31 463.18-5.03 462.5-7.25 461.82-9.47 461.82-11.87L461.82-11.87Q461.82-15.01 462.95-17.68 464.09-20.34 466.07-22.27 468.04-24.19 470.7-25.28 473.37-26.37 476.42-26.37L476.42-26.37Q477.88-26.37 479.16-26.16 480.45-25.95 481.45-25.73L481.45-25.73ZM505.71 0L505.71-25.88 509.32-25.88 510.05-21.39Q510.89-22.17 511.97-23.05 513.06-23.93 514.29-24.66 515.52-25.39 516.85-25.88 518.18-26.37 519.53-26.37L519.53-26.37Q520.63-26.37 521.7-26 522.77-25.63 523.69-24.98 524.61-24.32 525.33-23.38 526.05-22.44 526.46-21.29L526.46-21.29Q527.36-22.09 528.44-22.99 529.51-23.88 530.72-24.63 531.93-25.39 533.3-25.88 534.66-26.37 536.18-26.37L536.18-26.37Q537.96-26.37 539.39-25.67 540.82-24.98 541.82-23.73 542.82-22.49 543.36-20.79 543.89-19.09 543.89-17.09L543.89-17.09 543.89 0 539.25 0 539.25-16.7Q539.25-18.02 538.9-19.08 538.55-20.14 537.89-20.9 537.23-21.66 536.29-22.06 535.35-22.46 534.18-22.46L534.18-22.46Q533.18-22.46 532.28-22.17 531.39-21.88 530.53-21.35 529.66-20.83 528.79-20.09 527.93-19.36 527.02-18.51L527.02-18.51Q527.07-18.16 527.08-17.83 527.1-17.5 527.1-17.09L527.1-17.09 527.1 0 522.46 0 522.46-16.7Q522.46-18.02 522.09-19.08 521.72-20.14 521.05-20.9 520.38-21.66 519.43-22.06 518.48-22.46 517.33-22.46L517.33-22.46Q516.35-22.46 515.47-22.17 514.6-21.88 513.75-21.35 512.91-20.83 512.07-20.1 511.23-19.38 510.35-18.55L510.35-18.55 510.35 0 505.71 0ZM552.68-8.69L552.68-25.88 557.32-25.88 557.32-9.47Q557.32-8.13 557.7-7.02 558.07-5.91 558.75-5.1 559.42-4.3 560.36-3.86 561.3-3.42 562.44-3.42L562.44-3.42Q563.45-3.42 564.41-3.76 565.37-4.1 566.27-4.65 567.16-5.2 567.95-5.92 568.74-6.64 569.43-7.42L569.43-7.42 569.43-25.88 574.07-25.88 574.07 0 570.45 0 569.67-4.44Q568.77-3.61 567.74-2.75 566.72-1.88 565.56-1.16 564.4-0.44 563.1 0.02 561.81 0.49 560.39 0.49L560.39 0.49Q558.73 0.49 557.33-0.17 555.93-0.83 554.89-2.04 553.85-3.25 553.27-4.94 552.68-6.64 552.68-8.69L552.68-8.69ZM581.05-1.17L582.02-5.08 582.46-5.37Q583.39-4.86 584.42-4.46 585.44-4.05 586.44-3.78 587.44-3.52 588.41-3.37 589.37-3.22 590.2-3.22L590.2-3.22Q591.35-3.22 592.3-3.49 593.25-3.76 593.92-4.25 594.6-4.74 594.97-5.42 595.35-6.1 595.35-6.93L595.35-6.93Q595.35-7.98 594.77-8.68 594.18-9.38 593.23-9.88 592.28-10.38 591.06-10.74 589.84-11.11 588.57-11.5 587.3-11.89 586.08-12.38 584.85-12.87 583.9-13.61 582.95-14.36 582.36-15.42 581.78-16.48 581.78-18.02L581.78-18.02Q581.78-19.73 582.54-21.25 583.29-22.78 584.66-23.91 586.03-25.05 587.94-25.71 589.86-26.37 592.2-26.37L592.2-26.37Q592.76-26.37 593.55-26.32 594.33-26.27 595.21-26.16 596.09-26.05 597-25.87 597.92-25.68 598.77-25.42L598.77-25.42 597.79-21.61 597.21-21.26Q596.52-21.63 595.71-21.9 594.89-22.17 594.05-22.33 593.2-22.49 592.4-22.57 591.59-22.66 590.98-22.66L590.98-22.66Q589.86-22.66 588.94-22.41 588.03-22.17 587.37-21.72 586.71-21.26 586.34-20.62 585.98-19.97 585.98-19.14L585.98-19.14Q585.98-18.07 586.56-17.36 587.15-16.65 588.13-16.15 589.1-15.65 590.34-15.28 591.57-14.92 592.86-14.53 594.16-14.14 595.39-13.65 596.62-13.16 597.6-12.4 598.58-11.65 599.16-10.56 599.75-9.47 599.75-7.91L599.75-7.91Q599.75-6.08 598.93-4.54 598.11-3 596.68-1.88 595.25-0.76 593.34-0.13 591.42 0.49 589.22 0.49L589.22 0.49Q587.34 0.49 585.21 0.05 583.07-0.39 581.05-1.17L581.05-1.17ZM606.7 0L606.7-25.88 611.34-25.88 611.34 0 606.7 0ZM609.05-31.49L609.05-31.49Q608.44-31.49 607.9-31.71 607.36-31.93 606.97-32.32 606.58-32.71 606.36-33.24 606.14-33.76 606.14-34.4L606.14-34.4Q606.14-35.03 606.39-35.6 606.63-36.16 607.03-36.57 607.44-36.99 607.98-37.22 608.53-37.45 609.14-37.45L609.14-37.45Q609.73-37.45 610.25-37.22 610.78-36.99 611.17-36.57 611.56-36.16 611.78-35.61 612-35.06 612-34.45L612-34.45Q612-33.79 611.76-33.24 611.51-32.69 611.11-32.31 610.71-31.93 610.17-31.71 609.63-31.49 609.05-31.49ZM638.12-4.83L638.12-2.2Q636.61-1.03 634.52-0.27 632.43 0.49 629.97 0.49L629.97 0.49Q627.33 0.49 625.19-0.43 623.06-1.34 621.54-2.98 620.03-4.61 619.21-6.9 618.39-9.18 618.39-11.89L618.39-11.89Q618.39-15.04 619.47-17.7 620.54-20.36 622.41-22.29 624.28-24.22 626.82-25.29 629.36-26.37 632.26-26.37L632.26-26.37Q632.95-26.37 633.74-26.31 634.53-26.25 635.31-26.1 636.09-25.95 636.83-25.74 637.56-25.54 638.12-25.24L638.12-25.24 637.14-21.19 636.61-20.95Q636.12-21.31 635.5-21.63 634.87-21.95 634.18-22.17 633.48-22.39 632.74-22.52 631.99-22.66 631.29-22.66L631.29-22.66Q629.65-22.66 628.2-22.01 626.74-21.36 625.65-20.13 624.55-18.9 623.91-17.1 623.28-15.31 623.28-13.01L623.28-13.01Q623.28-10.67 623.95-8.89 624.62-7.1 625.79-5.88 626.96-4.66 628.58-4.04 630.19-3.42 632.07-3.42L632.07-3.42Q633.19-3.42 634.78-3.7 636.36-3.98 638.12-4.83L638.12-4.83Z" opacity="1" transform="matrix(1,0,0,1,0,0)" fill="#adbfb8" class="slogan-text-1" data-fill-palette-color="secondary" id="text-1"></path></svg></g></svg></g></svg></g></svg></g><g transform="matrix(1,0,0,1,83.32231153407345,0)"><svg viewBox="0 0 228.87537693185308 228.87537693185308" height="228.87537693185308" width="228.87537693185308"><g><svg></svg></g><g id="icon-0"><svg viewBox="0 0 228.87537693185308 228.87537693185308" height="228.87537693185308" width="228.87537693185308"><g><path d="M0 114.438c0-63.202 51.236-114.438 114.438-114.438 63.202 0 114.438 51.236 114.437 114.438 0 63.202-51.236 114.438-114.437 114.437-63.202 0-114.438-51.236-114.438-114.437zM114.438 222.319c59.581 0 107.882-48.3 107.881-107.881 0-59.581-48.3-107.882-107.881-107.882-59.581 0-107.882 48.3-107.882 107.882 0 59.581 48.3 107.882 107.882 107.881z" data-fill-palette-color="accent" fill="#096a2e" stroke="transparent"></path><ellipse rx="113.29331158126728" ry="113.29331158126728" cx="114.43768846592654" cy="114.43768846592654" fill="#096a2e" stroke="transparent" stroke-width="0" fill-opacity="1" data-fill-palette-color="accent"></ellipse></g><g transform="matrix(1,0,0,1,58.99114232392004,46.79588502018471)"><svg viewBox="0 0 110.89309228401301 135.28360689148366" height="135.28360689148366" width="110.89309228401301"><g><svg xmlns="http://www.w3.org/2000/svg" xmlns:xlink="http://www.w3.org/1999/xlink" version="1.1" x="0" y="0" viewBox="4.5440000000000005 4.208 19.332 23.583999999999996" enable-background="new 0 0 32 32" xml:space="preserve" height="135.28360689148366" width="110.89309228401301" class="icon-cg-0" data-fill-palette-color="quaternary" id="cg-0"><path d="M10.96 8.042v6.041 9.862c-0.677-0.45-1.636-0.736-2.708-0.736-2.048 0-3.708 1.025-3.708 2.292 0 1.265 1.66 2.291 3.708 2.291s3.708-1.026 3.708-2.291V13.786l10.916-3.24v9.565c-0.678-0.45-1.635-0.736-2.709-0.736-2.047 0-3.707 1.025-3.707 2.292 0 1.265 1.66 2.291 3.707 2.291 2.049 0 3.709-1.026 3.709-2.291V10.249 4.208L10.96 8.042z" fill="#ffffff" data-fill-palette-color="quaternary"></path></svg></g></svg></g></svg></g></svg></g><g></g></svg></g><defs></defs></svg><rect width="253.59235157863574" height="247.2" fill="none" stroke="none" visibility="hidden"></rect></g></svg></g></svg>